<svg xmlns="http://www.w3.org/2000/svg" xmlns:xlink="http://www.w3.org/1999/xlink" viewBox="0 0 125 21"><path d="M 3.057 11.452 L 3.06 11.448 C 3.06 11.448 1.705 10.541 1.632 8.515 C 1.559 6.489 2.687 5.493 2.85 5.319 C 2.85 5.318 2.849 5.314 2.85 5.313 C 3.273 4.879 3.526 4.283 3.503 3.63 C 3.457 2.361 2.391 1.37 1.122 1.416 C -0.146 1.461 -1.139 2.527 -1.094 3.796 C -1.07 4.449 -0.774 5.025 -0.322 5.428 C -0.32 5.429 -0.322 5.432 -0.32 5.434 C -0.146 5.596 1.052 6.508 1.125 8.533 C 1.198 10.559 -0.088 11.562 -0.088 11.562 L -0.084 11.565 C -0.514 12.001 -0.775 12.601 -0.752 13.261 C -0.706 14.531 0.361 15.523 1.63 15.477 C 2.898 15.431 3.89 14.365 3.845 13.096 C 3.821 12.436 3.518 11.855 3.057 11.452 Z" fill="rgb(245,245,245)"></path><path d="M 8.791 15.682 L 8.794 15.679 C 8.794 15.679 7.458 14.743 7.427 12.717 C 7.394 10.69 8.543 9.717 8.709 9.546 C 8.71 9.545 8.709 9.542 8.71 9.54 C 9.141 9.115 9.406 8.524 9.396 7.872 C 9.377 6.601 8.331 5.588 7.061 5.609 C 5.792 5.628 4.778 6.674 4.798 7.944 C 4.808 8.596 5.092 9.178 5.537 9.59 C 5.538 9.592 5.536 9.595 5.537 9.596 C 5.709 9.761 6.888 10.698 6.92 12.725 C 6.951 14.752 5.645 15.729 5.645 15.729 L 5.648 15.732 C 5.209 16.158 4.936 16.754 4.947 17.414 C 4.966 18.683 6.013 19.697 7.282 19.678 C 8.552 19.657 9.565 18.611 9.546 17.342 C 9.535 16.681 9.244 16.094 8.791 15.682 Z" fill="rgb(245,245,245)"></path><path d="M 14.232 11.515 L 14.236 11.512 C 14.236 11.512 12.908 10.564 12.897 8.536 C 12.884 6.51 14.043 5.547 14.211 5.379 C 14.212 5.378 14.21 5.374 14.212 5.373 C 14.647 4.952 14.919 4.365 14.916 3.712 C 14.908 2.441 13.871 1.417 12.601 1.424 C 11.333 1.431 10.308 2.467 10.316 3.737 C 10.32 4.391 10.598 4.975 11.038 5.391 C 11.039 5.392 11.038 5.396 11.04 5.397 C 11.209 5.564 12.379 6.513 12.389 8.539 C 12.402 10.566 11.086 11.53 11.086 11.53 L 11.089 11.533 C 10.646 11.955 10.367 12.548 10.371 13.209 C 10.378 14.479 11.414 15.502 12.684 15.494 C 13.954 15.488 14.978 14.452 14.97 13.182 C 14.966 12.522 14.681 11.932 14.232 11.515 Z" fill="rgb(245,245,245)"></path><path d="M 27.709 18.552 L 27.709 2.448 L 30.076 2.448 L 39.335 14.661 L 39.335 2.448 L 41.703 2.448 L 41.703 18.552 L 39.335 18.552 L 30.076 6.339 L 30.076 18.552 Z" fill="rgb(245,245,245)"></path><path d="M 56.998 18.833 C 52.474 18.833 48.629 15.012 48.629 10.488 C 48.629 5.964 52.474 2.167 56.998 2.167 C 61.522 2.167 65.32 5.964 65.32 10.488 C 65.32 15.012 61.522 18.833 56.998 18.833 Z M 56.998 16.653 C 60.209 16.653 62.905 13.84 62.905 10.488 C 62.905 7.16 60.209 4.347 56.998 4.347 C 53.786 4.347 51.067 7.16 51.067 10.488 C 51.067 13.84 53.786 16.653 56.998 16.653 Z" fill="rgb(245,245,245)"></path><path d="M 72.249 18.552 L 72.249 2.448 L 77.804 2.448 C 83.008 2.448 86.712 5.777 86.712 10.488 C 86.712 15.2 83.008 18.552 77.804 18.552 Z M 74.616 16.395 L 77.945 16.395 C 81.672 16.395 84.274 13.958 84.274 10.488 C 84.274 7.042 81.672 4.605 77.945 4.605 L 74.616 4.605 Z" fill="rgb(245,245,245)"></path><path d="M 105.411 4.651 L 95.964 4.651 L 95.964 9.246 L 104.497 9.246 L 104.497 11.449 L 95.964 11.449 L 95.964 16.349 L 105.411 16.349 L 105.411 18.552 L 93.573 18.552 L 93.573 2.448 L 105.411 2.448 Z" fill="rgb(245,245,245)"></path><path d="M 111.666 18.552 L 111.643 16.7 L 120.949 4.651 L 111.83 4.651 L 111.83 2.448 L 124.207 2.448 L 124.207 4.3 L 114.901 16.349 L 124.301 16.349 L 124.301 18.552 Z" fill="rgb(245,245,245)"></path></svg>