<svg width="100" height="100" viewBox="0 0 100 100" fill="none" xmlns="http://www.w3.org/2000/svg">
<path d="M70.0359 74.2132L76.6627 77.4567C78.6101 78.4097 80.9681 77.563 81.7217 75.5301C83.6575 70.3078 85.1711 64.1225 85.6923 57.7591C86.3024 50.3131 85.5484 42.6998 82.5966 36.1119L82.5925 36.1137C82.4613 35.8299 82.328 35.5468 82.1926 35.2646C81.1769 33.3132 79.2746 30.92 76.4731 29.3364C73.3156 27.5515 68.929 26.7437 63.1726 28.9033C61.9515 29.3615 60.7083 29.9535 59.4614 30.6598C61.0274 33.3283 62.1493 36.9271 62.2384 41.6726C62.319 45.9614 61.6242 50.023 60.5599 53.6416L70.6454 57.3921C73.0305 58.279 74.5965 60.6391 74.1202 63.1388C73.5478 66.1439 72.5882 69.069 71.2707 71.8487C70.8973 72.6368 70.4865 73.4279 70.0359 74.2132Z" fill="white"/>
<path d="M35.8335 71.3693C36.6949 71.1095 37.6048 70.7337 38.5596 70.2113C42.6033 67.9985 45.6613 64.3854 47.8352 60.8409C49.2446 58.543 50.3045 56.238 51.0332 54.2909C51.3618 53.4128 52.3326 52.9355 53.2112 53.2621L69.5385 59.3339C71.1829 59.9454 72.2198 61.6 71.8496 63.315C71.3615 65.5751 70.5402 68.2327 69.2733 70.9057C67.1967 75.2875 63.9607 79.6346 59.1187 82.3823C55.1176 84.6526 51.0255 85.8238 47.2004 85.9998C43.0327 85.2935 40.2984 83.4817 38.5565 81.062C36.7123 78.5001 35.8923 75.1334 35.8335 71.3693Z" fill="white"/>
<path d="M45.952 14.3223C56.2496 13.1154 63.9011 15.3972 69.7089 19.5046C72.7948 21.687 75.3865 24.4035 77.5844 27.4325L77.5607 27.4191C73.8119 25.3001 68.7403 24.4603 62.3954 26.8408C53.8774 30.0365 44.695 39.0416 39.8061 48.225C36.6352 54.1815 33.5081 63.3153 33.6263 71.3767C33.6857 75.4173 34.5622 79.2905 36.7647 82.35C37.5314 83.4152 38.4484 84.3671 39.5264 85.1859C31.6824 83.2315 21.8127 77.7897 16.4937 65.2464C11.8519 54.3003 14.0589 42.1834 20.0729 32.4446C26.0961 22.6909 35.823 15.5095 45.952 14.3223Z" fill="white"/>
</svg>
