<svg width="100" height="100" viewBox="0 0 100 100" fill="none" xmlns="http://www.w3.org/2000/svg">
<path fill-rule="evenodd" clip-rule="evenodd" d="M21.9732 41.12C25.726 29.2903 36.7774 20.72 49.8265 20.72C65.9649 20.72 79.0474 33.8294 79.0474 50.0001C79.0474 65.0222 67.7574 77.4023 53.216 79.0853V69.8645C59.5906 68.7825 64.9448 64.6982 67.7782 59.1148H59.6822C57.2316 61.7701 53.7245 63.4328 49.8294 63.4328C42.4213 63.4328 36.4156 57.4188 36.4156 50.0001C36.4156 42.5816 42.4213 36.5679 49.8294 36.5679C53.8403 36.5679 57.4404 38.3308 59.8986 41.1254H67.8977C64.6206 34.4473 57.7611 29.8516 49.8294 29.8516C38.7171 29.8516 29.7089 38.8725 29.7089 50.0001C29.7089 59.9852 36.9622 68.2741 46.4806 69.8709V79.0902C35.0017 77.7792 25.542 69.8036 22.0502 59.1202H15.0616C19.0916 74.5863 33.129 86 49.8265 86C69.6685 86 85.7542 69.8827 85.7542 50.0001C85.7542 30.1178 69.6685 14 49.8265 14C33.0424 13.9998 18.9464 25.5322 15 41.12H21.9732Z" fill="white"/>
<path d="M57.1835 49.9842C57.1835 54.0627 53.8834 57.3687 49.8125 57.3687C45.7417 57.3687 42.4416 54.0627 42.4416 49.9842C42.4416 45.9058 45.7417 42.5996 49.8125 42.5996C53.8834 42.5996 57.1835 45.9058 57.1835 49.9842Z" fill="#FF7C2B"/>
</svg>
