<svg width="100" height="100" viewBox="0 0 100 100" fill="none" xmlns="http://www.w3.org/2000/svg">
<path d="M45.7073 18L52.5681 22.307L47.2422 40.3357L40.3833 36.0286L45.7073 18Z" fill="#B0915A"/>
<path d="M37.5953 45.4688L44.4542 49.7758L37.7529 72.4773L30.8921 68.1702L37.5953 45.4688Z" fill="#B0915A"/>
<path d="M56.8422 27.5523C56.3172 27.2267 55.7105 27.0562 55.0925 27.0606H45.2524L52.1133 31.3736H61.9533C62.5745 31.3653 63.185 31.5345 63.7129 31.8613L56.8422 27.5523Z" fill="#997D4C"/>
<path d="M49.0746 45.4688L55.9335 49.7758H44.4541L37.5952 45.4688H49.0746Z" fill="#997D4C"/>
<path d="M54.3198 36.0286L61.1807 40.3356L55.9336 49.7757L49.0747 45.4687L54.3198 36.0286Z" fill="#AB8E56"/>
<path d="M76.126 34.3785C76.1082 34.0146 76.0807 33.6508 76.0353 33.2929V33.2594C75.9762 32.8084 75.8961 32.3646 75.795 31.928C75.7674 31.81 75.728 31.6979 75.6984 31.5799C75.6156 31.2632 75.527 30.9486 75.4226 30.6418C75.4088 30.6024 75.4009 30.5611 75.3871 30.5218C75.3496 30.4156 75.2984 30.3251 75.259 30.213C75.1506 29.9259 75.0344 29.6407 74.9063 29.3654C74.8354 29.21 74.7585 29.0586 74.6817 28.9071C74.5477 28.6495 74.4078 28.3958 74.2581 28.148C74.2068 28.0634 74.1674 27.971 74.1142 27.8884C74.061 27.8058 73.9901 27.7075 73.929 27.617L73.7714 27.3849C73.5743 27.0978 73.3576 26.8146 73.131 26.5451L73.1212 26.5333C72.8432 26.2051 72.5479 25.892 72.2365 25.5952L72.201 25.5579C72.067 25.43 71.9192 25.3179 71.7793 25.196C71.6394 25.0741 71.4779 24.9266 71.3183 24.8027L71.2769 24.7673C70.9826 24.5417 70.6779 24.3293 70.3626 24.13L63.486 19.823C63.8171 20.0315 64.1363 20.2576 64.4417 20.4956C64.6032 20.6215 64.753 20.7591 64.9067 20.8889C65.0604 21.0187 65.216 21.1446 65.3599 21.2823C65.6713 21.579 65.9666 21.8922 66.2446 22.2204C66.4751 22.4938 66.6899 22.7789 66.8948 23.072C66.9499 23.1487 67.0012 23.2273 67.0544 23.306C67.1687 23.4771 67.2751 23.6561 67.3815 23.835C67.5312 24.0828 67.6724 24.3366 67.8051 24.5962C67.8819 24.7456 67.9588 24.8971 68.0297 25.0505C68.1598 25.3278 68.274 25.6129 68.3844 25.9001C68.4376 26.0436 68.4967 26.1833 68.5459 26.3288C68.6523 26.6356 68.743 26.9503 68.8218 27.2689C68.8514 27.3849 68.8908 27.497 68.9184 27.615C69.0216 28.0544 69.1018 28.4988 69.1587 28.9465C69.208 29.3162 69.2375 29.6899 69.2553 30.0655C69.2553 30.1344 69.2553 30.2032 69.2651 30.274C69.277 30.6457 69.275 31.0213 69.2651 31.397C69.2651 31.4658 69.2651 31.5346 69.2533 31.6054C69.2316 31.9673 69.1962 32.3331 69.1449 32.6989C69.1449 32.7402 69.1449 32.7835 69.1292 32.8267C69.0701 33.2201 68.9913 33.6134 68.8986 34.0225C68.8829 34.0894 68.8671 34.1543 68.8494 34.2192C68.7588 34.5889 68.6523 34.9567 68.5282 35.3244C68.4593 35.5211 68.3765 35.7315 68.2997 35.9361C68.2228 36.1406 68.1263 36.4002 68.0258 36.6323C67.947 36.8113 67.8543 36.9902 67.7677 37.1692C67.6238 37.4681 67.4839 37.7592 67.3164 38.064L62.3531 46.8787L61.2891 48.5937C61.2989 48.5937 61.3226 48.635 61.3501 48.6724L61.3856 48.7176L61.4762 48.8395C61.494 48.8651 61.5157 48.8966 61.5373 48.9241L61.6556 49.0932L61.7363 49.2112C61.7817 49.2781 61.8289 49.3528 61.8782 49.4295L61.9688 49.5692C62.0674 49.7265 62.1659 49.8996 62.2841 50.0903C62.2999 50.1198 62.3176 50.1533 62.3353 50.1828C62.4319 50.3519 62.5324 50.5368 62.6309 50.7295C62.6604 50.7866 62.69 50.8436 62.7196 50.9046C62.8358 51.1366 62.954 51.3825 63.0703 51.644C63.0821 51.6735 63.0939 51.707 63.1077 51.7365C63.2102 51.9725 63.3048 52.2222 63.4052 52.4818C63.4368 52.5703 63.4703 52.6588 63.5018 52.7493C63.5451 52.8693 63.5845 52.9932 63.6259 53.1171C63.6673 53.241 63.6988 53.3472 63.7323 53.4652C63.7658 53.5832 63.8052 53.7248 63.8407 53.8585C63.8762 53.9923 63.9038 54.1004 63.9333 54.2263C63.9629 54.3522 63.9944 54.4997 64.022 54.6393C64.0496 54.7789 64.0732 54.893 64.0968 55.0326C64.1205 55.1723 64.1422 55.3217 64.1638 55.4673C64.1855 55.6128 64.1973 55.717 64.2111 55.8449C64.2486 56.1812 64.2781 56.5234 64.288 56.8754L71.1488 61.1825C71.139 60.8304 71.1094 60.4882 71.072 60.1519C71.072 60.1165 71.072 60.0792 71.072 60.0438C71.0601 59.9513 71.0444 59.8648 71.0306 59.7724C71.0109 59.6288 70.9892 59.4833 70.9656 59.3417C70.9419 59.2001 70.9163 59.082 70.8907 58.9483C70.8651 58.8146 70.8336 58.673 70.802 58.5373C70.7705 58.4016 70.7409 58.2895 70.7094 58.1695C70.6779 58.0495 70.6385 57.9079 70.601 57.7762C70.5636 57.6444 70.5301 57.5402 70.4927 57.4261C70.4552 57.312 70.4119 57.1803 70.3705 57.0603C70.3548 57.0131 70.339 56.962 70.3232 56.9167C70.3075 56.8715 70.2897 56.8341 70.272 56.7909C70.1774 56.5313 70.075 56.2815 69.9745 56.0455C69.9626 56.016 69.9508 55.9825 69.937 55.955C69.8228 55.6915 69.7045 55.4456 69.5883 55.2136L69.4976 55.0385C69.3991 54.8419 69.3006 54.6609 69.2041 54.4918L69.1528 54.4013C69.0405 54.2047 68.9361 54.0355 68.8356 53.8762L68.81 53.8349L68.7489 53.7405L68.6051 53.5203L68.5223 53.4003C68.4809 53.3393 68.4415 53.2862 68.4061 53.2351L68.343 53.1485L68.2543 53.0266L68.2189 52.9814L68.1578 52.9027L69.2218 51.1878L74.1694 42.3868C74.2344 42.2708 74.2975 42.1548 74.3664 42.0407C74.463 41.8578 74.5398 41.6749 74.6285 41.492C74.7172 41.3091 74.8058 41.134 74.8846 40.9551C74.9063 40.9098 74.9319 40.8646 74.9516 40.8174C75.0304 40.6325 75.0896 40.4457 75.1605 40.2589C75.2314 40.072 75.3201 39.8518 75.3891 39.6492C75.4009 39.6079 75.4206 39.5686 75.4324 39.5273C75.5388 39.2008 75.6294 38.8704 75.7102 38.5439C75.726 38.479 75.7437 38.4141 75.7575 38.3472C75.7713 38.2804 75.8028 38.1742 75.8206 38.0876C75.8876 37.7749 75.9447 37.4622 75.99 37.1515C75.99 37.1082 75.9999 37.0669 76.0058 37.0237C76.0393 36.7818 76.0708 36.5418 76.0905 36.3019C76.1023 36.178 76.1063 36.0541 76.1142 35.9302L76.126 35.7217C76.1437 35.3461 76.1457 34.9704 76.126 34.5987C76.126 34.5201 76.126 34.4473 76.126 34.3785Z" fill="#B29257"/>
<path d="M64.28 56.8677L71.1408 61.1767H51.1514L44.2905 56.8677H64.28Z" fill="#997D4C"/>
<path d="M81.446 59.6585C81.446 59.3714 81.4342 59.0842 81.4165 58.7991C81.4165 58.7106 81.4165 58.624 81.4027 58.5375C81.381 58.2031 81.3515 57.8708 81.312 57.5404C81.312 57.5168 81.312 57.4932 81.3022 57.4696C81.2785 57.2729 81.245 57.0762 81.2155 56.8796C81.1859 56.6829 81.1564 56.4705 81.1189 56.2679C81.0815 56.0654 81.0401 55.8746 80.9988 55.6917C80.9574 55.5088 80.918 55.2885 80.8687 55.0879C80.8195 54.8873 80.7682 54.7103 80.717 54.5215C80.6658 54.3327 80.6126 54.1282 80.5534 53.9315C80.4943 53.7348 80.4313 53.5598 80.3702 53.3749C80.3091 53.1901 80.2658 53.0386 80.2067 52.8754C80.1968 52.8498 80.185 52.8262 80.1771 52.8006C80.1042 52.604 80.0254 52.4073 79.9505 52.2224C79.8756 52.0376 79.8126 51.8645 79.7357 51.6895C79.6589 51.5144 79.5663 51.3138 79.4796 51.127C79.3929 50.9402 79.3239 50.7809 79.2392 50.6098C79.1545 50.4387 79.0422 50.2479 78.9535 50.067C78.8648 49.886 78.7801 49.7306 78.6875 49.5674C78.5949 49.4042 78.4806 49.2154 78.3742 49.0423C78.2678 48.8692 78.2067 48.7532 78.1181 48.6136C78.1094 48.5984 78.0995 48.5839 78.0885 48.5703C77.856 48.2045 77.6137 47.8505 77.3614 47.5044C77.3004 47.4178 77.2334 47.3372 77.1644 47.2526C76.9674 46.995 76.7703 46.7413 76.5733 46.4954C76.5398 46.4541 76.5102 46.4089 76.4748 46.3696C76.3881 46.2673 76.2974 46.1729 76.2088 46.0706C76.0945 45.9389 75.9802 45.8091 75.862 45.6773C75.7438 45.5455 75.592 45.3941 75.4561 45.2564C75.3201 45.1188 75.2157 45.0106 75.0935 44.8946C75.0581 44.8592 75.0246 44.8218 74.9891 44.7884C74.7921 44.6015 74.595 44.4186 74.3842 44.2416L67.5234 39.9346C67.7657 40.143 68.0002 40.3633 68.2327 40.5855C68.3549 40.7035 68.4751 40.8274 68.5933 40.9474C68.7115 41.0674 68.8691 41.2267 69.0031 41.3703C69.1371 41.5138 69.2337 41.6279 69.3479 41.7636C69.4622 41.8993 69.5942 42.0448 69.7144 42.1904C69.9167 42.4369 70.1138 42.6886 70.3055 42.9456C70.3706 43.0321 70.4376 43.1127 70.5026 43.1993C70.7522 43.5454 70.9939 43.9001 71.2277 44.2633C71.3282 44.4206 71.4247 44.5838 71.5193 44.7451C71.6139 44.9064 71.7281 45.0853 71.8267 45.2604C71.9252 45.4354 72.0079 45.5967 72.0966 45.7658C72.1853 45.9349 72.2936 46.1218 72.3784 46.3047C72.4631 46.4876 72.5399 46.6508 72.6207 46.8239C72.7015 46.997 72.7941 47.1936 72.8769 47.3824C72.9596 47.5712 73.0207 47.7404 73.0916 47.9213C73.1626 48.1022 73.2453 48.3009 73.3163 48.4936C73.3872 48.6863 73.4463 48.8869 73.5133 49.0718C73.5803 49.2567 73.6414 49.4396 73.6966 49.6264C73.7517 49.8132 73.8069 50.0198 73.8601 50.2164C73.9133 50.4131 73.9665 50.594 74.0118 50.7848C74.0571 50.9756 74.0985 51.1781 74.1419 51.3748C74.1852 51.5715 74.2266 51.7681 74.262 51.9648C74.2975 52.1615 74.3271 52.3581 74.3566 52.5705C74.3862 52.783 74.4216 52.9639 74.4453 53.1606C74.4886 53.5126 74.5221 53.8686 74.5477 54.2245C74.5477 54.313 74.5478 54.4015 74.5615 54.4881C74.5773 54.7752 74.5872 55.0604 74.5911 55.3475C74.5911 55.4517 74.5911 55.556 74.5911 55.6602C74.5911 56.028 74.5911 56.3958 74.5596 56.7655C74.532 57.2296 74.4847 57.6898 74.4315 58.1422C74.3921 58.4883 74.3428 58.8345 74.2857 59.1767C74.268 59.2907 74.2423 59.4048 74.2226 59.5189C74.1813 59.745 74.1419 59.9732 74.0926 60.1974C74.0709 60.3036 74.0433 60.4078 74.0177 60.516C73.9645 60.7539 73.9074 60.9939 73.8463 61.2318C73.8108 61.3636 73.7714 61.4934 73.734 61.6252C73.6749 61.8337 73.6158 62.0421 73.5488 62.2486C73.4995 62.404 73.4463 62.5594 73.3931 62.7147C73.3399 62.8701 73.2847 63.0333 73.2276 63.1907C73.1705 63.348 73.1094 63.5014 73.0483 63.6568C72.9872 63.8121 72.9261 63.9675 72.8611 64.1229C72.8256 64.2074 72.7882 64.2901 72.7508 64.3746C72.5242 64.8997 72.2799 65.417 72.0139 65.9204C71.9843 65.9755 71.9528 66.0286 71.9232 66.0817C71.6487 66.593 71.3564 67.0926 71.0464 67.5803L70.9715 67.6885C70.6405 68.1998 70.2904 68.6954 69.9213 69.1753C69.8996 69.2048 69.876 69.2323 69.8543 69.2599C69.4602 69.7673 69.0452 70.2563 68.609 70.727C68.5342 70.8077 68.4573 70.8863 68.3825 70.965C68.2169 71.14 68.0495 71.3111 67.878 71.4803L67.5844 71.7635C67.4189 71.9188 67.2515 72.0742 67.082 72.2256L66.7983 72.4774C66.481 72.7507 66.1599 73.0182 65.8308 73.264C65.819 73.2739 65.8072 73.2798 65.7973 73.2896C65.4762 73.5355 65.1471 73.7695 64.8121 73.9976L64.5442 74.1766C64.1678 74.4264 63.7875 74.6683 63.3974 74.8925L63.3481 74.92C62.9698 75.1363 62.5856 75.3389 62.1935 75.5336L61.9216 75.6673C61.5275 75.864 61.1157 76.0391 60.7039 76.2062L60.5069 76.281C60.1345 76.4265 59.7562 76.5602 59.3759 76.6861L59.1197 76.7707C58.6961 76.9024 58.2666 77.0204 57.835 77.1247L57.5612 77.1876C57.1671 77.2781 56.7658 77.3567 56.3573 77.4236C56.2942 77.4236 56.2331 77.4472 56.172 77.4551C55.7267 77.5259 55.2755 77.577 54.8243 77.6144C54.7205 77.6235 54.6161 77.6314 54.511 77.638C54.048 77.6714 53.583 77.693 53.114 77.693H18L24.8608 82.0001H59.969C60.4379 82.0001 60.9029 81.9785 61.366 81.945C61.4724 81.945 61.5748 81.9313 61.6792 81.9214C62.1324 81.8841 62.5836 81.8329 63.0289 81.7641L63.2122 81.7307C63.6181 81.6638 64.0181 81.5851 64.4181 81.4946L64.69 81.4317C65.1235 81.3268 65.5523 81.2088 65.9766 81.0777L66.2308 80.9931C66.6131 80.8699 66.9907 80.7349 67.3638 80.588L67.5608 80.5133C67.9726 80.3461 68.3785 80.1652 68.7785 79.9744L69.0504 79.8407C69.4445 79.644 69.8267 79.4473 70.205 79.2271L70.2543 79.1995C70.6484 78.9753 71.0247 78.7334 71.4011 78.4836C71.4464 78.4541 71.4937 78.4286 71.537 78.3991C71.5804 78.3696 71.6237 78.3361 71.6671 78.3066C72.002 78.0765 72.3311 77.8425 72.6523 77.5947L72.6838 77.5731C73.0148 77.3174 73.336 77.0499 73.6532 76.7766C73.6906 76.7431 73.73 76.7136 73.7675 76.6822L73.935 76.5268C74.1064 76.3734 74.2739 76.218 74.4394 76.0607C74.5379 75.9682 74.6364 75.8758 74.731 75.7794C74.9044 75.6103 75.0719 75.4372 75.2374 75.2622C75.2985 75.1993 75.3635 75.1363 75.4344 75.0655C75.4482 75.0518 75.46 75.0341 75.4738 75.0203C75.9086 74.5483 76.3237 74.0586 76.7191 73.5512L76.7664 73.4981L76.7841 73.4706C77.1546 72.9907 77.5053 72.4872 77.8363 71.9837L77.8895 71.909C77.8968 71.8976 77.9034 71.8858 77.9092 71.8736C78.2225 71.3878 78.5141 70.8903 78.788 70.377C78.8077 70.3396 78.8313 70.3062 78.8491 70.2708C78.8668 70.2354 78.8668 70.2314 78.8767 70.2137C79.1394 69.7076 79.3857 69.1917 79.6156 68.6659C79.6353 68.6246 79.6569 68.5873 79.6747 68.544C79.6924 68.5007 79.7082 68.4594 79.7259 68.4181C79.7909 68.2608 79.852 68.1035 79.9229 67.9461C79.9939 67.7888 80.0431 67.6413 80.1003 67.4859C80.1574 67.3305 80.2126 67.1653 80.2677 67.0041C80.3052 66.89 80.3485 66.7779 80.386 66.6638L80.4214 66.5439C80.4865 66.3374 80.5475 66.1269 80.6067 65.9185C80.6441 65.7887 80.6835 65.6589 80.717 65.5251C80.78 65.2872 80.8372 65.0453 80.8924 64.8034C80.9121 64.7109 80.9377 64.6205 80.9593 64.528V64.4907C81.0086 64.2645 81.048 64.0363 81.0894 63.8082C81.1091 63.6941 81.1347 63.584 81.1524 63.4699C81.2096 63.1277 81.2569 62.7836 81.2983 62.4355C81.3278 62.17 81.3574 61.9064 81.381 61.639C81.3987 61.4423 81.4145 61.2456 81.4263 61.0489C81.448 60.6792 81.4559 60.3114 81.4579 59.9456C81.446 59.867 81.446 59.7627 81.446 59.6585Z" fill="url(#paint0_linear_746_11059)"/>
<path d="M56.9659 18C66.9676 18 72.461 28.9151 67.3084 38.0701L62.3451 46.8848L61.2811 48.5997C61.4249 48.7787 64.142 52.1948 64.28 56.8598H44.2905L57.9098 32.3352C59.2555 29.9221 57.7245 27.0507 55.0921 27.0507H45.2521L47.585 18H56.9659Z" fill="#F4D78B"/>
<path d="M67.5253 39.9443C71.9488 43.7656 74.9556 50.1711 74.5596 56.7693C74.532 57.2335 74.4847 57.6937 74.4315 58.146C73.1764 69.0415 63.8526 77.7028 53.116 77.7028H18L35.7176 18H45.7074L40.3874 36.0286H54.3238L49.0787 45.4687H37.5954L30.8961 68.1702H53.6539C59.7522 68.1702 65.0289 63.0569 65.4072 56.7634C65.5845 53.8252 64.4062 50.4405 62.7531 48.4207L67.5253 39.9443Z" fill="#F4D78B"/>
<defs>
<linearGradient id="paint0_linear_746_11059" x1="18" y1="2144.49" x2="6363.19" y2="2144.49" gradientUnits="userSpaceOnUse">
<stop offset="0.18" stop-color="#997D4C"/>
<stop offset="0.91" stop-color="#AA8C52"/>
<stop offset="0.98" stop-color="#AC8E53"/>
</linearGradient>
</defs>
</svg>
