<svg width="100" height="100" viewBox="0 0 100 100" fill="none" xmlns="http://www.w3.org/2000/svg">
<path d="M54.3604 22.9999V14H45.3604V22.9999H54.3604Z" fill="white"/>
<path d="M36 49.9997V14L18.0001 14L18.0001 49.9997H36Z" fill="white"/>
<path d="M36 85.9995V49.9998H18.0001L18.0001 85.9995H36Z" fill="white"/>
<path d="M72.0005 50.0001V32.0002H63.0006V50.0001H72.0005Z" fill="white"/>
<path d="M63.002 86.0001V68.0002H54.002V86.0001H63.002Z" fill="white"/>
<path d="M72.0005 86.0001V68.0002H63.0006V86.0001H72.0005Z" fill="white"/>
<path d="M45.001 86.0001V68.0002H36.001V86.0001H45.001Z" fill="white"/>
<path d="M81 31.9999V14H72.0001V31.9999H81Z" fill="white"/>
<path d="M63.002 49.9997V14H54.002V49.9997H63.002Z" fill="white"/>
<path d="M54.0005 85.9995V49.9998H45.0006V85.9995H54.0005Z" fill="white"/>
</svg>
