<svg width="100" height="100" viewBox="0 0 100 100" fill="none" xmlns="http://www.w3.org/2000/svg">
<path d="M18.7878 14C17.5183 14 16.3007 14.5042 15.4029 15.4017C14.5051 16.2993 14.0004 17.5166 14 18.7862V86H73.5726C75.5886 85.9998 77.5219 85.199 78.9477 83.7736L83.7736 78.9477C84.4796 78.2419 85.0395 77.4038 85.4215 76.4816C85.8035 75.5594 86 74.5707 86 73.5726V14H18.7878Z" fill="#00F58C"/>
<path d="M61.0108 23.2571L37.596 46.6721C37.0144 47.2526 36.2261 47.5791 35.4043 47.5795C34.8174 47.5795 34.2424 47.4127 33.7464 47.0987C33.2503 46.7848 32.8536 46.3366 32.6024 45.806L23.531 26.6265C23.361 26.2666 23.2846 25.8696 23.3092 25.4723C23.3337 25.075 23.4583 24.6904 23.6713 24.3542C23.8844 24.018 24.179 23.7411 24.5277 23.5493C24.8765 23.3575 25.2681 23.257 25.6661 23.2571H61.0108Z" fill="black"/>
<path d="M23.2573 76.7428V53.9599C23.2578 53.3763 23.4899 52.8168 23.9027 52.4043C24.3155 51.9919 24.8752 51.76 25.4588 51.76H48.2401L23.2573 76.7428Z" fill="black"/>
<path d="M50.1212 47.5795H42.5776L65.2743 24.8845C65.7898 24.3687 66.402 23.9594 67.0757 23.6802C67.7497 23.4009 68.4717 23.2572 69.2012 23.2571H76.7429L54.0481 45.9537C53.0059 46.9942 51.5937 47.5789 50.1212 47.5795Z" fill="black"/>
</svg>
