<svg width="100" height="100" viewBox="0 0 100 100" fill="none" xmlns="http://www.w3.org/2000/svg">
<path d="M72.856 14.335H78.9299V85.6632H72.856V14.335Z" fill="white"/>
<path d="M24.1108 20.4087V14.335H54.6356V20.4087H24.1108Z" fill="white"/>
<path d="M62.5 14.335H68.5738V75.3063H62.5V14.335Z" fill="white"/>
<path d="M21.0708 14.335H27.1446V85.6632H21.0708V14.335Z" fill="white"/>
<path d="M31.4297 24.6929H37.5034V85.6648H31.4297V24.6929Z" fill="white"/>
<path d="M41.7856 24.6929H47.8594V75.3079H41.7856V24.6929Z" fill="white"/>
<path d="M52.1411 14.335H58.2149V75.3063H52.1411V14.335Z" fill="white"/>
<path d="M31.5063 30.7667V24.6929H47.8589V30.7667H31.5063Z" fill="white"/>
<path d="M52.2212 75.3062V69.2327H68.5737V75.3062H52.2212Z" fill="white"/>
<path d="M62.4966 75.3062V69.2327H68.5704V75.3062H62.4966Z" fill="white"/>
<path d="M41.7856 85.6624V79.5884H77.605V85.6624H41.7856Z" fill="white"/>
</svg>
