<svg width="100" height="100" viewBox="0 0 100 100" fill="none" xmlns="http://www.w3.org/2000/svg">
<path d="M84.002 69.699L71.7493 53.0518C70.4181 51.2429 68.4471 50.1593 66.3481 49.9204C65.8704 49.8649 65.4438 49.5877 65.2047 49.1695C64.9616 48.7514 64.936 48.2438 65.128 47.8C65.9686 45.8632 66.0196 43.6149 65.1153 41.5585L56.8258 22.6247C55.5972 19.8132 52.8198 18 49.7522 18C46.6849 18 43.9074 19.8174 42.6788 22.6247L34.3894 41.5585C33.4892 43.6149 33.5361 45.8632 34.3766 47.8C34.5685 48.2438 34.5387 48.7514 34.2998 49.1695C34.0566 49.5877 33.6342 49.8649 33.1564 49.9204C31.0574 50.1593 29.0863 51.2429 27.7553 53.0518L15.5025 69.699C13.685 72.1691 13.5016 75.4798 15.0332 78.1377C16.569 80.7914 19.5298 82.2889 22.576 81.952L43.1182 79.6651C45.3494 79.4176 47.2736 78.253 48.5278 76.555C48.8138 76.1667 49.2703 75.9363 49.7522 75.9363C50.2344 75.9363 50.6866 76.1667 50.9768 76.555C52.231 78.253 54.1552 79.4176 56.3865 79.6651L76.9287 81.952C79.9748 82.2932 82.9356 80.7956 84.4715 78.1377C86.0029 75.4798 85.8196 72.1691 84.002 69.699ZM39.7478 43.9348L48.0499 24.9797C48.3488 24.3013 49.0185 23.8619 49.7564 23.8619C50.4946 23.8619 51.1643 24.3013 51.4632 24.9797L59.7654 43.9348C60.0257 44.5321 59.9701 45.2232 59.6117 45.7693C59.2533 46.3154 58.6477 46.6439 57.9907 46.6439H41.5183C40.8656 46.6439 40.2555 46.3154 39.8972 45.7693C39.5388 45.2232 39.4833 44.5321 39.7435 43.9348H39.7478ZM44.0098 72.792C43.7154 73.3765 43.1438 73.769 42.4953 73.8415L21.9318 76.1283C21.1979 76.2093 20.4812 75.8511 20.1101 75.2111C19.7389 74.571 19.7858 73.7733 20.2252 73.1761L32.4909 56.5119C32.8791 55.9871 33.502 55.6885 34.1547 55.7269C34.8074 55.761 35.3962 56.1236 35.7247 56.6909L35.7375 56.7124L43.9503 70.9363L43.963 70.9575C44.2915 71.5251 44.3084 72.2162 44.014 72.7962L44.0098 72.792ZM51.4418 66.3585C51.0918 66.9599 50.452 67.3355 49.7522 67.3355C49.0568 67.3355 48.4128 66.9644 48.0629 66.3627L41.753 55.4367C41.4032 54.8353 41.4032 54.0886 41.753 53.4871C42.1028 52.8854 42.7428 52.5101 43.4424 52.5101H56.058C56.7533 52.5101 57.3974 52.8769 57.7473 53.4829C58.0972 54.0886 58.0972 54.831 57.7473 55.4325L51.4418 66.3585ZM79.3988 75.2111C79.0277 75.8511 78.3151 76.2138 77.5772 76.1326L57.0136 73.8457C56.3651 73.7733 55.7935 73.3808 55.4991 72.7962C55.2047 72.212 55.2217 71.5206 55.5502 70.9575L55.5631 70.9363L63.7757 56.7124L63.7883 56.6909C64.1168 56.1236 64.7056 55.761 65.3584 55.7269C66.0112 55.6927 66.634 55.9871 67.0223 56.5119L79.2879 73.1761C79.7273 73.7733 79.7698 74.571 79.403 75.2111H79.3988Z" fill="white"/>
</svg>
