<svg width="100" height="100" viewBox="0 0 100 100" fill="none" xmlns="http://www.w3.org/2000/svg">
<g clip-path="url(#clip0_2843_8298)">
<path fill-rule="evenodd" clip-rule="evenodd" d="M14.8465 62.4511C8.69511 55.1367 9.12356 44.3267 16.1302 37.4983C23.5944 30.2274 35.6943 30.2274 43.1586 37.4983C50.6212 44.7709 50.6212 56.56 43.1586 63.8325C35.9213 70.8838 24.3241 71.0967 16.8236 64.4746L33.6983 48.0317L35.7252 50.0066L25.4219 60.047C29.271 61.6917 33.9255 60.9775 37.0759 57.9078C41.1815 53.9077 41.1815 47.4231 37.0759 43.4247C32.9721 39.4246 26.3166 39.4246 22.211 43.4247C18.5683 46.9738 18.1588 52.4811 20.9825 56.4711L14.8465 62.4511ZM65.5823 54.3703V51.5858H89.3776C88.894 61.1433 80.9944 68.7998 71.1677 69.2055C59.9195 69.6716 50.6726 60.518 51.3231 49.5673C51.9012 39.8218 60.4632 32.0916 70.3452 32.0916C80.227 32.0916 88.3503 39.4195 89.307 48.8011H80.6519C79.7572 44.0482 75.4831 40.4472 70.3452 40.4472C63.8737 40.4472 58.7719 46.1623 60.0675 52.6972C60.8693 56.7358 64.1335 59.906 68.282 60.6772C73.5834 61.6613 78.3548 58.751 80.1117 54.3703H65.5823Z" fill="url(#paint0_linear_2843_8298)"/>
</g>
<defs>
<linearGradient id="paint0_linear_2843_8298" x1="71.582" y1="30.0158" x2="34.7735" y2="66.73" gradientUnits="userSpaceOnUse">
<stop stop-color="#FAEA53"/>
<stop offset="0.12" stop-color="#FFAF90"/>
<stop offset="0.25" stop-color="#FE7981"/>
<stop offset="0.56" stop-color="#BC50FF"/>
<stop offset="1" stop-color="#53B7FF"/>
</linearGradient>
<clipPath id="clip0_2843_8298">
<rect width="80" height="38.6207" fill="white" transform="translate(10 30.6897)"/>
</clipPath>
</defs>
</svg>
